<svg width="20" height="11" viewBox="0 0 20 11" fill="none" xmlns="http://www.w3.org/2000/svg">
<path d="M17.827 7.59291C19.4334 9.03157 19.7651 9.72092 19.8169 9.81084C20.4802 10.8699 19.0914 10.9498 19.0914 10.9498L16.4174 10.9897C16.4174 10.9897 15.837 11.0996 15.0908 10.6001C14.0855 9.94072 13.1216 8.21233 12.4065 8.44212C11.6706 8.6719 11.6914 10.2205 11.6914 10.2205C11.6914 10.2205 11.6914 10.4403 11.5255 10.6101C11.339 10.7999 10.9762 10.73 10.9762 10.73H9.78434C9.78434 10.73 7.14146 10.9897 4.83024 8.66191C2.291 6.12428 0.0523284 1.12895 0.0523284 1.12895C0.0523284 1.12895 -0.0720424 0.829226 0.0626926 0.659384C0.218156 0.499533 0.653454 0.499534 0.653454 0.499534H3.51398C3.51398 0.499534 3.79381 0.499533 3.97001 0.659384C4.12547 0.769282 4.21875 0.999067 4.21875 0.999067C4.21875 0.999067 4.67477 2.10803 5.29663 3.12708C6.48851 5.11522 7.03782 5.54482 7.42129 5.33502C8.04315 5.02531 7.86696 2.52764 7.86696 2.52764C7.86696 2.52764 7.87732 1.61849 7.56639 1.21886C7.32802 0.909151 6.87199 0.809244 6.67507 0.789263C6.50924 0.769282 6.77871 0.409617 7.12073 0.239776C7.63894 -2.23517e-07 8.54063 0 9.61851 0C10.458 0 10.6964 0.0599442 11.0177 0.129879C12.0126 0.359664 11.6706 1.24883 11.6706 3.36686C11.6706 4.05621 11.567 4.99534 12.0541 5.32503C12.2718 5.4649 12.8107 5.34501 14.158 3.15705C14.7799 2.11802 15.2567 0.88917 15.2567 0.88917C15.2567 0.88917 15.3603 0.679366 15.5158 0.579459C15.6816 0.499534 15.9096 0.499534 15.9096 0.499534H18.9152C18.9152 0.499534 19.8273 0.399627 19.9724 0.789263C20.1278 1.19888 19.6304 2.16798 18.397 3.73651C16.3864 6.33409 16.1583 6.09431 17.827 7.59291Z" fill="#474747"/>
</svg>
