<svg width="20" height="19" viewBox="0 0 20 19" fill="none" xmlns="http://www.w3.org/2000/svg">
<path d="M14.75 11.2843C15 11.4069 15.16 11.473 15.21 11.5673C15.27 11.6711 15.25 12.1428 15 12.6806C14.8 13.209 13.76 13.7185 13.3 13.7374C12.84 13.7562 12.83 14.077 10.34 13.0486C7.85 12.0202 6.35 9.51048 6.23 9.35009C6.11 9.18969 5.27 8.04806 5.31 6.88755C5.36 5.73648 6 5.18925 6.26 4.96281C6.5 4.7175 6.77 4.6892 6.94 4.7175H7.41C7.56 4.7175 7.77 4.66089 7.96 5.14208L8.65 6.90642C8.71 7.02908 8.75 7.1706 8.66 7.32156L8.39 7.7084L8 8.10467C7.88 8.21789 7.74 8.34054 7.88 8.57642C8 8.82173 8.5 9.60483 9.2 10.2558C10.11 11.0861 10.91 11.3597 11.15 11.4824C11.39 11.6145 11.54 11.5956 11.69 11.4447L12.5 10.5578C12.69 10.3219 12.85 10.3785 13.08 10.454L14.75 11.2843ZM10 0C11.3132 0 12.6136 0.244044 13.8268 0.718197C15.0401 1.19235 16.1425 1.88733 17.0711 2.76345C17.9997 3.63957 18.7362 4.67967 19.2388 5.82438C19.7413 6.96909 20 8.19598 20 9.435C20 11.9373 18.9464 14.3371 17.0711 16.1066C15.1957 17.876 12.6522 18.87 10 18.87C8.03 18.87 6.2 18.3322 4.65 17.4076L0 18.87L1.55 14.4827C0.57 13.0203 0 11.2937 0 9.435C0 6.93268 1.05357 4.53285 2.92893 2.76345C4.8043 0.994042 7.34784 0 10 0V0ZM10 1.887C7.87827 1.887 5.84344 2.68223 4.34315 4.09776C2.84285 5.51328 2 7.43315 2 9.435C2 11.0578 2.54 12.558 3.46 13.7845L2.5 16.5113L5.39 15.6055C6.69 16.4735 8.28 16.983 10 16.983C12.1217 16.983 14.1566 16.1878 15.6569 14.7722C17.1571 13.3567 18 11.4369 18 9.435C18 7.43315 17.1571 5.51328 15.6569 4.09776C14.1566 2.68223 12.1217 1.887 10 1.887V1.887Z" fill="#474747"/>
</svg>
