<svg width="27" height="25" viewBox="0 0 27 25" fill="none" xmlns="http://www.w3.org/2000/svg">
<path d="M24 5H10.8187L10.1983 2.54755C10.1462 2.34184 10.0599 2.15348 9.947 1.98708C9.65187 1.40159 9.04525 1 8.34483 1H2.7931C1.8028 1 1 1.8028 1 2.7931C1 3.78341 1.8028 4.58621 2.7931 4.58621H7.07276L9.8804 15.6846C10.11 16.5922 11.0063 17.1621 11.9173 16.9983C11.9447 16.9994 11.9723 17 12 17H22C23.1046 17 24 16.1046 24 15C24 13.8954 23.1046 13 22 13H23C24.1046 13 25 12.1046 25 11C25 9.89543 24.1046 9 23 9H24C25.1046 9 26 8.10457 26 7C26 5.89543 25.1046 5 24 5ZM13.1756 23.3941C14.5399 23.3941 15.6657 22.2978 15.6657 20.9212C15.6657 19.5445 14.5399 18.4483 13.1756 18.4483C11.8113 18.4483 10.6855 19.5445 10.6855 20.9212C10.6855 22.2978 11.8113 23.3941 13.1756 23.3941ZM22.116 23.3941C23.4803 23.3941 24.6061 22.2978 24.6061 20.9212C24.6061 19.5445 23.4803 18.4483 22.116 18.4483C20.7517 18.4483 19.6259 19.5445 19.6259 20.9212C19.6259 22.2978 20.7517 23.3941 22.116 23.3941Z" stroke="#008A93" stroke-width="2"/>
</svg>
