<svg width="47" height="47" viewBox="0 0 47 47" fill="none" xmlns="http://www.w3.org/2000/svg">
<path d="M12.0903 3.61035C13.5441 3.92918 14.6147 4.42571 15.4242 5C18.9824 4.03707 23.1051 3.64941 27 4.02205C23.0471 -0.331767 17.5581 -0.860993 11.9325 1.05258C10.579 1.51297 10.7573 3.34825 12.0903 3.61035Z" fill="#009EB4"/>
<path d="M6.36668 28.714C9.08776 26.3399 12.1885 25.7968 15.5831 27.0999C18.736 28.3494 23.8923 29.825 28.5944 30.5824C28.2553 30.0492 28.2524 30.0458 28.2293 30.0059C26.9609 27.802 24.1794 22.0827 25.7379 16.5875C26.6564 13.3491 28.9003 10.7437 32.4074 8.84345C32.436 8.82739 32.4308 8.83031 33 8.51898C28.7205 6.90024 23.8579 6.66604 19.3626 7.3891C15.2944 8.0397 13.1725 9.0657 11.1799 10.3822C1.49176 16.7757 -1.27716 25.4453 0.508471 32.7225L0.50911 32.7246C2.60214 41.246 11.3529 46.5817 11.7244 46.8047C11.933 46.9299 12.1725 47 12.4408 47C12.8245 47 15.2339 46.9189 16.9063 44.9495C18.3845 43.209 18.8052 40.6181 18.1564 37.2488C17.9921 36.3944 17.0695 35.9002 16.2588 36.2549C16.2362 36.2648 13.9637 37.244 11.1924 37.14C7.86298 37.0147 5.24543 35.412 3.40247 32.3735C3.87777 31.5474 4.87439 30.0159 6.36668 28.714Z" fill="#009EB4"/>
<path d="M46.9829 28.4717C45.762 20.3422 42.2792 13.6756 36.1468 10C32.9124 11.8087 34.0281 11.1853 33.7866 11.3199C30.9103 12.911 29.087 15.0331 28.3672 17.6272C27.0818 22.2603 29.496 27.3234 30.6128 29.314L32.1703 31.8177C36.8107 32.2501 41.6257 31.9889 45.6933 30.2089C46.1771 29.9971 46.5215 29.8736 46.782 29.4563C46.9647 29.1635 47.0358 28.8142 46.9829 28.4717ZM36.6482 21.0334C35.8474 21.0334 35.2485 20.3799 35.2485 19.6149C35.2485 18.8487 35.8486 18.1965 36.6482 18.1965C37.4147 18.1965 38.0362 18.8316 38.0362 19.6149C38.0362 20.3983 37.4147 21.0334 36.6482 21.0334Z" fill="#009EB4"/>
</svg>
